<svg width="25" height="24" viewBox="0 0 25 24" fill="none" xmlns="http://www.w3.org/2000/svg">
<g id="5340287_man_people_person_user_users_icon 1">
<g id="user people person users man">
<path id="Vector" d="M18.305 12.1349C18.2351 12.0655 18.1522 12.0105 18.061 11.9731C17.9698 11.9357 17.8722 11.9166 17.7736 11.917C17.6751 11.9173 17.5776 11.9371 17.4867 11.9751C17.3958 12.0132 17.3132 12.0687 17.2438 12.1387C17.1744 12.2086 17.1194 12.2915 17.082 12.3827C17.0446 12.4739 17.0255 12.5715 17.0259 12.6701C17.0262 12.7686 17.046 12.8661 17.084 12.957C17.122 13.0479 17.1776 13.1305 17.2475 13.1999C17.8822 13.8278 18.3859 14.5754 18.7297 15.3993C19.0734 16.2232 19.2503 17.1072 19.25 17.9999C19.25 18.9149 16.6175 20.2499 12.5 20.2499C8.38255 20.2499 5.75005 18.9149 5.75005 17.9999C5.74886 17.113 5.92245 16.2346 6.2609 15.4149C6.59935 14.5951 7.09603 13.8501 7.72255 13.2224C7.86223 13.0819 7.94064 12.8918 7.94064 12.6937C7.94064 12.4955 7.86223 12.3054 7.72255 12.1649C7.58202 12.0252 7.39194 11.9468 7.1938 11.9468C6.99566 11.9468 6.80557 12.0252 6.66505 12.1649C5.89638 12.9293 5.2871 13.8387 4.87254 14.8403C4.45798 15.8419 4.24639 16.9159 4.25005 17.9999C4.25005 20.4374 8.50255 21.7499 12.5 21.7499C16.4975 21.7499 20.75 20.4374 20.75 17.9999C20.7529 16.9089 20.5382 15.8282 20.1183 14.8211C19.6985 13.8141 19.0821 12.9008 18.305 12.1349Z" fill="#6A6B6C"/>
<path id="Vector_2" d="M12.5 12.75C13.5384 12.75 14.5534 12.4421 15.4167 11.8652C16.2801 11.2883 16.953 10.4684 17.3504 9.50909C17.7477 8.54978 17.8517 7.49418 17.6491 6.47578C17.4466 5.45738 16.9465 4.52192 16.2123 3.78769C15.4781 3.05347 14.5426 2.55345 13.5242 2.35088C12.5058 2.14831 11.4502 2.25227 10.4909 2.64963C9.5316 3.04699 8.71166 3.7199 8.13478 4.58326C7.55791 5.44662 7.25 6.46165 7.25 7.5C7.25 8.89239 7.80312 10.2277 8.78769 11.2123C9.77226 12.1969 11.1076 12.75 12.5 12.75ZM12.5 3.75C13.2417 3.75 13.9667 3.96994 14.5834 4.38199C15.2001 4.79405 15.6807 5.37972 15.9645 6.06494C16.2484 6.75016 16.3226 7.50416 16.1779 8.23159C16.0333 8.95902 15.6761 9.62721 15.1517 10.1517C14.6272 10.6761 13.959 11.0333 13.2316 11.1779C12.5042 11.3226 11.7502 11.2484 11.0649 10.9646C10.3797 10.6807 9.79404 10.2001 9.38199 9.58339C8.96993 8.96671 8.75 8.24168 8.75 7.5C8.75 6.50544 9.14509 5.55161 9.84835 4.84835C10.5516 4.14509 11.5054 3.75 12.5 3.75Z" fill="#6A6B6C"/>
</g>
</g>
</svg>
