<svg width="33" height="32" viewBox="0 0 33 32" fill="none" xmlns="http://www.w3.org/2000/svg">
<path d="M16.4903 0.0715332C7.65912 0.0715332 0.5 7.10706 0.5 15.7858C0.5 24.4646 7.65912 31.5001 16.4903 31.5001C25.3216 31.5001 32.4807 24.4646 32.4807 15.7858C32.4704 7.11125 25.3173 0.0816359 16.4903 0.0715332Z" fill="#5243C2" fill-opacity="0.103693"/>
<path d="M23.7569 10.5774L15.6287 21.4172C15.4349 21.67 15.1458 21.8356 14.8265 21.8768C14.5072 21.9181 14.1844 21.8315 13.9306 21.6366L8.12635 17.0761C7.61416 16.6733 7.53122 15.9388 7.94111 15.4354C8.35099 14.9321 9.09848 14.8505 9.61067 15.2534L14.4508 19.0588L21.845 9.19684C22.0875 8.83927 22.5103 8.64158 22.9456 8.68226C23.3809 8.72293 23.7582 8.99539 23.9277 9.39146C24.0973 9.78753 24.0316 10.2431 23.7569 10.5774Z" fill="#3F5974"/>
</svg>
