<svg width="33" height="32" viewBox="0 0 33 32" fill="none" xmlns="http://www.w3.org/2000/svg">
<path d="M16.4903 0.571533C7.65912 0.571533 0.5 7.60706 0.5 16.2858C0.5 24.9646 7.65912 32.0001 16.4903 32.0001C25.3216 32.0001 32.4807 24.9646 32.4807 16.2858C32.4704 7.61125 25.3173 0.581636 16.4903 0.571533Z" fill="white" fill-opacity="0.103693"/>
<path d="M25.7209 11.3095L16.5997 23.4737C16.3822 23.7573 16.0578 23.9432 15.6995 23.9894C15.3412 24.0357 14.9789 23.9386 14.6942 23.7199L8.1808 18.6023C7.60604 18.1502 7.51297 17.3259 7.97293 16.7611C8.43289 16.1962 9.2717 16.1048 9.84646 16.5568L15.2778 20.8271L23.5755 9.76035C23.8476 9.3591 24.322 9.13726 24.8105 9.1829C25.299 9.22854 25.7224 9.53429 25.9126 9.97874C26.1029 10.4232 26.0292 10.9345 25.7209 11.3095Z" fill="#FBFBFF"/>
</svg>
